# xmcd
#
# Track frame offsets:
# 150
# 18678
# 44511
# 64739
# 86442
# 107180
# 131924
# 155493
# 179156
# 201410
# 221139
# 237649
# 267005
# 293695
# 313459
#
# Disc length: 4394 seconds
#
#
# Revision: 0
# Processed by: cddbd v1.5.1PL2 Copyright (c) Steve Scherf et al.
# Submitted via: FreeRIP 2.945 
#
DISCID=f511280f
DTITLE=Deborah Allen - Memphis Princess
DYEAR=2006
DGENRE=Country
TTITLE0=tired of being alone
TTITLE1=matter of love
TTITLE2=falling in love
TTITLE3=love me like you used to
TTITLE4=i love you
TTITLE5=someday our night will come
TTITLE6=sail on
TTITLE7=taking my time
TTITLE8=next big thing
TTITLE9=natural tears
TTITLE10=you don't want to touch my heart
TTITLE11=fantasize me
TTITLE12=tell some about it
TTITLE13=woman
TTITLE14=baby, i lied (2006 remake)
EXTD=Country Pop
EXTT0=
EXTT1=
EXTT2=
EXTT3=
EXTT4=
EXTT5=
EXTT6=
EXTT7=
EXTT8=
EXTT9=
EXTT10=
EXTT11=
EXTT12=
EXTT13=
EXTT14=
PLAYORDER=
